name analog
datacolumns 19
datarows 77
range 0.4475 0.4855
endheader
time	ground_force_vx	ground_force_vy	ground_force_vz	ground_force_px	ground_force_py	ground_force_pz	l_ground_force_vx	l_ground_force_vy	l_ground_force_vz	l_ground_force_px	l_ground_force_py	l_ground_force_pz	ground_torque_x	ground_torque_y	ground_torque_z	l_ground_torque_x	l_ground_torque_y	l_ground_torque_z
0.4475	-0.0	-0.0	-0.0	-6.053071975708008	-13.191299438476562	-727.3624877929688	-0.0	-0.0	-0.0	-0.0	-0.0	-0.0	-0.0	-0.0	-0.0	-0.0	-0.0	-0.0
0.448	-0.0	-0.0	-0.0	-5.011019706726074	-13.23695182800293	-724.9664306640625	-0.0	-0.0	-0.0	-0.0	-0.0	-0.0	-0.0	-0.0	-0.0	-0.0	-0.0	-0.0
0.4485	-0.0	-0.0	-0.0	-4.1365180015563965	-13.534900665283203	-724.070068359375	-0.0	-0.0	-0.0	-0.0	-0.0	-0.0	-0.0	-0.0	-0.0	-0.0	-0.0	-0.0
0.449	-0.0	-0.0	-0.0	-3.790180206298828	-13.784658432006836	-722.4246215820312	-0.0	-0.0	-0.0	-0.0	-0.0	-0.0	-0.0	-0.0	-0.0	-0.0	-0.0	-0.0
0.4495	-0.0	-0.0	-0.0	-3.1962502002716064	-13.91965675354004	-722.7772827148438	-0.0	-0.0	-0.0	-0.0	-0.0	-0.0	-0.0	-0.0	-0.0	-0.0	-0.0	-0.0
0.45	-0.0	-0.0	-0.0	-2.614851474761963	-14.602033615112305	-721.010986328125	-0.0	-0.0	-0.0	-0.0	-0.0	-0.0	-0.0	-0.0	-0.0	-0.0	-0.0	-0.0
0.4505	-0.0	-0.0	-0.0	-1.5382490158081057	-14.887913703918455	-718.7945556640625	-0.0	-0.0	-0.0	-0.0	-0.0	-0.0	-0.0	-0.0	-0.0	-0.0	-0.0	-0.0
0.451	-0.0	-0.0	-0.0	-1.6795703172683716	-15.345844268798828	-720.3038330078125	-0.0	-0.0	-0.0	-0.0	-0.0	-0.0	-0.0	-0.0	-0.0	-0.0	-0.0	-0.0
0.4515	-0.0	-0.0	-0.0	-2.288539171218872	-15.00481414794922	-720.2421264648438	-0.0	-0.0	-0.0	-0.0	-0.0	-0.0	-0.0	-0.0	-0.0	-0.0	-0.0	-0.0
0.452	-0.0	-0.0	-0.0	-2.5288796424865723	-14.958428382873535	-722.0689697265625	-0.0	-0.0	-0.0	-0.0	-0.0	-0.0	-0.0	-0.0	-0.0	-0.0	-0.0	-0.0
0.4525	-0.0	-0.0	-0.0	-1.9315704107284544	-15.105618476867676	-721.6080932617188	-0.0	-0.0	-0.0	-0.0	-0.0	-0.0	-0.0	-0.0	-0.0	-0.0	-0.0	-0.0
0.453	-0.0	-0.0	-0.0	-1.3225895166397097	-15.430919647216797	-724.8485107421875	-0.0	-0.0	-0.0	-0.0	-0.0	-0.0	-0.0	-0.0	-0.0	-0.0	-0.0	-0.0
0.4535	-0.0	-0.0	-0.0	-0.903348445892334	-15.372820854187012	-731.188720703125	-0.0	-0.0	-0.0	-0.0	-0.0	-0.0	-0.0	-0.0	-0.0	-0.0	-0.0	-0.0
0.454	-0.0	-0.0	-0.0	-0.2520003914833069	-15.346046447753906	-732.848388671875	-0.0	-0.0	-0.0	-0.0	-0.0	-0.0	-0.0	-0.0	-0.0	-0.0	-0.0	-0.0
0.4545	-0.0	-0.0	-0.0	-0.2423576116561889	-16.069984436035156	-734.55224609375	-0.0	-0.0	-0.0	-0.0	-0.0	-0.0	-0.0	-0.0	-0.0	-0.0	-0.0	-0.0
0.455	-0.0	-0.0	-0.0	-0.0421274602413177	-15.377470016479492	-736.0269775390625	-0.0	-0.0	-0.0	-0.0	-0.0	-0.0	-0.0	-0.0	-0.0	-0.0	-0.0	-0.0
0.4555	-0.0	-0.0	-0.0	-0.6296553611755371	-15.10501480102539	-736.5669555664062	-0.0	-0.0	-0.0	-0.0	-0.0	-0.0	-0.0	-0.0	-0.0	-0.0	-0.0	-0.0
0.456	-0.0	-0.0	-0.0	-1.2070459127426147	-15.503286361694336	-737.7928466796875	-0.0	-0.0	-0.0	-0.0	-0.0	-0.0	-0.0	-0.0	-0.0	-0.0	-0.0	-0.0
0.4565	-0.0	-0.0	-0.0	-2.182880163192749	-14.916337013244627	-738.2086181640625	-0.0	-0.0	-0.0	-0.0	-0.0	-0.0	-0.0	-0.0	-0.0	-0.0	-0.0	-0.0
0.457	-0.0	-0.0	-0.0	-2.031711339950561	-15.288743019104004	-737.3770141601562	-0.0	-0.0	-0.0	-0.0	-0.0	-0.0	-0.0	-0.0	-0.0	-0.0	-0.0	-0.0
0.4575	-0.0	-0.0	-0.0	-1.649502873420715	-14.827351570129396	-737.1493530273438	-0.0	-0.0	-0.0	-0.0	-0.0	-0.0	-0.0	-0.0	-0.0	-0.0	-0.0	-0.0
0.458	-0.0	-0.0	-0.0	-0.9972200989723206	-13.93612289428711	-733.453369140625	-0.0	-0.0	-0.0	-0.0	-0.0	-0.0	-0.0	-0.0	-0.0	-0.0	-0.0	-0.0
0.4585	-0.0	-0.0	-0.0	0.3090519309043884	-12.97165584564209	-733.94580078125	-0.0	-0.0	-0.0	-0.0	-0.0	-0.0	-0.0	-0.0	-0.0	-0.0	-0.0	-0.0
0.459	-0.0	-0.0	-0.0	1.7935819625854492	-11.2144775390625	-732.3316040039062	-0.0	-0.0	-0.0	-0.0	-0.0	-0.0	-0.0	-0.0	-0.0	-0.0	-0.0	-0.0
0.4595	-0.0	-0.0	-0.0	1.4593790769577026	-10.03057861328125	-732.9117431640625	-0.0	-0.0	-0.0	-0.0	-0.0	-0.0	-0.0	-0.0	-0.0	-0.0	-0.0	-0.0
0.46	-0.0	-0.0	-0.0	1.9556567668914795	-8.613615989685059	-732.9752807617188	-0.0	-0.0	-0.0	-0.0	-0.0	-0.0	-0.0	-0.0	-0.0	-0.0	-0.0	-0.0
0.4605	-0.0	-0.0	-0.0	1.557583570480347	-8.094812393188477	-734.0066528320312	-0.0	-0.0	-0.0	-0.0	-0.0	-0.0	-0.0	-0.0	-0.0	-0.0	-0.0	-0.0
0.461	-0.0	-0.0	-0.0	1.589682936668396	-7.47828197479248	-736.0613403320312	-0.0	-0.0	-0.0	-0.0	-0.0	-0.0	-0.0	-0.0	-0.0	-0.0	-0.0	-0.0
0.4615	-0.0	-0.0	-0.0	2.3602895736694336	-6.717013835906982	-738.3076782226562	-0.0	-0.0	-0.0	-0.0	-0.0	-0.0	-0.0	-0.0	-0.0	-0.0	-0.0	-0.0
0.462	-0.0	-0.0	-0.0	2.8223981857299805	-6.928219318389893	-735.9629516601562	-0.0	-0.0	-0.0	-0.0	-0.0	-0.0	-0.0	-0.0	-0.0	-0.0	-0.0	-0.0
0.4625	-0.0	-0.0	-0.0	3.187195301055908	-6.846848487854004	-735.0957641601562	-0.0	-0.0	-0.0	-0.0	-0.0	-0.0	-0.0	-0.0	-0.0	-0.0	-0.0	-0.0
0.463	-0.0	-0.0	-0.0	2.7817583084106445	-6.360694408416748	-735.192138671875	-0.0	-0.0	-0.0	-0.0	-0.0	-0.0	-0.0	-0.0	-0.0	-0.0	-0.0	-0.0
0.4635	-0.0	-0.0	-0.0	1.67872953414917	-5.8584980964660645	-734.3566284179688	-0.0	-0.0	-0.0	-0.0	-0.0	-0.0	-0.0	-0.0	-0.0	-0.0	-0.0	-0.0
0.464	-0.0	-0.0	-0.0	0.71368408203125	-3.979245662689209	-734.743408203125	-0.0	-0.0	-0.0	-0.0	-0.0	-0.0	-0.0	-0.0	-0.0	-0.0	-0.0	-0.0
0.4645	-0.0	-0.0	-0.0	0.1784210205078125	-2.358802318572998	-733.942626953125	-0.0	-0.0	-0.0	-0.0	-0.0	-0.0	-0.0	-0.0	-0.0	-0.0	-0.0	-0.0
0.465	-0.0	-0.0	-0.0	-1.199845552444458	-0.5601196885108948	-734.0375366210938	-0.0	-0.0	-0.0	-0.0	-0.0	-0.0	-0.0	-0.0	-0.0	-0.0	-0.0	-0.0
0.4655	-0.0	-0.0	-0.0	-2.6178815364837646	0.5675628185272217	-735.6373291015625	-0.0	-0.0	-0.0	-0.0	-0.0	-0.0	-0.0	-0.0	-0.0	-0.0	-0.0	-0.0
0.466	-0.0	-0.0	-0.0	-3.1786930561065674	0.7458989024162292	-736.092041015625	-0.0	-0.0	-0.0	-0.0	-0.0	-0.0	-0.0	-0.0	-0.0	-0.0	-0.0	-0.0
0.4665	-0.0	-0.0	-0.0	-3.1621618270874023	1.3273422718048096	-735.8694458007812	-0.0	-0.0	-0.0	-0.0	-0.0	-0.0	-0.0	-0.0	-0.0	-0.0	-0.0	-0.0
0.467	-0.0	-0.0	-0.0	-2.9274370670318604	1.1818455457687378	-736.8904418945312	-0.0	-0.0	-0.0	-0.0	-0.0	-0.0	-0.0	-0.0	-0.0	-0.0	-0.0	-0.0
0.4675	-0.0	-0.0	-0.0	-2.4849486351013184	1.1716291904449463	-736.5111694335938	-0.0	-0.0	-0.0	-0.0	-0.0	-0.0	-0.0	-0.0	-0.0	-0.0	-0.0	-0.0
0.468	-0.0	-0.0	-0.0	-2.068410873413086	1.0759239196777344	-735.87060546875	-0.0	-0.0	-0.0	-0.0	-0.0	-0.0	-0.0	-0.0	-0.0	-0.0	-0.0	-0.0
0.4685	-0.0	-0.0	-0.0	-1.8838512897491453	1.214641809463501	-738.499267578125	-0.0	-0.0	-0.0	-0.0	-0.0	-0.0	-0.0	-0.0	-0.0	-0.0	-0.0	-0.0
0.46900000000000003	-0.0	-0.0	-0.0	-1.6949996948242188	0.7855440378189087	-739.4270629882812	-0.0	-0.0	-0.0	-0.0	-0.0	-0.0	-0.0	-0.0	-0.0	-0.0	-0.0	-0.0
0.46950000000000003	-0.0	-0.0	-0.0	-0.5686032772064209	1.06371009349823	-740.486328125	-0.0	-0.0	-0.0	-0.0	-0.0	-0.0	-0.0	-0.0	-0.0	-0.0	-0.0	-0.0
0.47000000000000003	-0.0	-0.0	-0.0	-0.0668312013149261	1.5319095849990845	-742.208251953125	-0.0	-0.0	-0.0	-0.0	-0.0	-0.0	-0.0	-0.0	-0.0	-0.0	-0.0	-0.0
0.47050000000000003	-0.0	-0.0	-0.0	0.6022450923919678	1.888468861579895	-743.3329467773438	-0.0	-0.0	-0.0	-0.0	-0.0	-0.0	-0.0	-0.0	-0.0	-0.0	-0.0	-0.0
0.47100000000000003	-0.0	-0.0	-0.0	1.6500437259674072	1.509865164756775	-743.7517700195312	-0.0	-0.0	-0.0	-0.0	-0.0	-0.0	-0.0	-0.0	-0.0	-0.0	-0.0	-0.0
0.47150000000000003	-0.0	-0.0	-0.0	2.7034597396850586	0.6574996113777161	-744.5902709960938	-0.0	-0.0	-0.0	-0.0	-0.0	-0.0	-0.0	-0.0	-0.0	-0.0	-0.0	-0.0
0.47200000000000003	-0.0	-0.0	-0.0	4.065011501312256	-0.3060283660888672	-741.9446411132812	-0.0	-0.0	-0.0	-0.0	-0.0	-0.0	-0.0	-0.0	-0.0	-0.0	-0.0	-0.0
0.47250000000000003	-0.0	-0.0	-0.0	3.713099956512451	-1.1032761335372925	-741.5726928710938	-0.0	-0.0	-0.0	-0.0	-0.0	-0.0	-0.0	-0.0	-0.0	-0.0	-0.0	-0.0
0.47300000000000003	-0.0	-0.0	-0.0	2.7392537593841557	-1.1080244779586792	-743.3768310546875	-0.0	-0.0	-0.0	-0.0	-0.0	-0.0	-0.0	-0.0	-0.0	-0.0	-0.0	-0.0
0.47350000000000003	-0.0	-0.0	-0.0	2.396235466003418	-1.4768701791763306	-745.4957885742188	-0.0	-0.0	-0.0	-0.0	-0.0	-0.0	-0.0	-0.0	-0.0	-0.0	-0.0	-0.0
0.47400000000000003	-0.0	-0.0	-0.0	2.5022006034851074	-1.42608642578125	-745.05810546875	-0.0	-0.0	-0.0	-0.0	-0.0	-0.0	-0.0	-0.0	-0.0	-0.0	-0.0	-0.0
0.47450000000000003	-0.0	-0.0	-0.0	2.013662576675415	-1.6254968643188477	-745.4117431640625	-0.0	-0.0	-0.0	-0.0	-0.0	-0.0	-0.0	-0.0	-0.0	-0.0	-0.0	-0.0
0.47500000000000003	-0.0	-0.0	-0.0	2.8797237873077397	-1.6083133220672607	-746.8562622070312	-0.0	-0.0	-0.0	-0.0	-0.0	-0.0	-0.0	-0.0	-0.0	-0.0	-0.0	-0.0
0.47550000000000003	-0.0	-0.0	-0.0	3.016071557998657	-0.8533852100372314	-743.9998779296875	-0.0	-0.0	-0.0	-0.0	-0.0	-0.0	-0.0	-0.0	-0.0	-0.0	-0.0	-0.0
0.47600000000000003	-0.0	-0.0	-0.0	3.088153123855591	-1.310112714767456	-744.8564453125	-0.0	-0.0	-0.0	-0.0	-0.0	-0.0	-0.0	-0.0	-0.0	-0.0	-0.0	-0.0
0.47650000000000003	-0.0	-0.0	-0.0	2.2645528316497803	-1.2820849418640137	-742.166748046875	-0.0	-0.0	-0.0	-0.0	-0.0	-0.0	-0.0	-0.0	-0.0	-0.0	-0.0	-0.0
0.47700000000000004	-0.0	-0.0	-0.0	0.9469500780105592	-1.9126604795455933	-739.5457153320312	-0.0	-0.0	-0.0	-0.0	-0.0	-0.0	-0.0	-0.0	-0.0	-0.0	-0.0	-0.0
0.47750000000000004	-0.0	-0.0	-0.0	-0.0375858843326568	-1.995254397392273	-741.32470703125	-0.0	-0.0	-0.0	-0.0	-0.0	-0.0	-0.0	-0.0	-0.0	-0.0	-0.0	-0.0
0.47800000000000004	-0.0	-0.0	-0.0	-1.2834389209747314	-2.501607894897461	-740.7667236328125	-0.0	-0.0	-0.0	-0.0	-0.0	-0.0	-0.0	-0.0	-0.0	-0.0	-0.0	-0.0
0.47850000000000004	-0.0	-0.0	-0.0	-1.8907042741775515	-2.2082018852233887	-739.28515625	-0.0	-0.0	-0.0	-0.0	-0.0	-0.0	-0.0	-0.0	-0.0	-0.0	-0.0	-0.0
0.47900000000000004	-0.0	-0.0	-0.0	-2.641697406768799	-2.265510320663452	-740.1965942382812	-0.0	-0.0	-0.0	-0.0	-0.0	-0.0	-0.0	-0.0	-0.0	-0.0	-0.0	-0.0
0.47950000000000004	-0.0	-0.0	-0.0	-2.287257432937622	-1.7628018856048584	-737.3710327148438	-0.0	-0.0	-0.0	-0.0	-0.0	-0.0	-0.0	-0.0	-0.0	-0.0	-0.0	-0.0
0.48	-0.0	-0.0	-0.0	-1.9603424072265625	-2.030343770980835	-735.673828125	-0.0	-0.0	-0.0	-0.0	-0.0	-0.0	-0.0	-0.0	-0.0	-0.0	-0.0	-0.0
0.4805	-0.0	-0.0	-0.0	-2.212850570678711	-2.299993991851806	-733.761474609375	-0.0	-0.0	-0.0	-0.0	-0.0	-0.0	-0.0	-0.0	-0.0	-0.0	-0.0	-0.0
0.481	-0.0	-0.0	-0.0	-2.160472869873047	-2.015135765075684	-733.4165649414062	-0.0	-0.0	-0.0	-0.0	-0.0	-0.0	-0.0	-0.0	-0.0	-0.0	-0.0	-0.0
0.4815	-0.0	-0.0	-0.0	-2.926461696624756	-1.7091639041900637	-732.2803955078125	-0.0	-0.0	-0.0	-0.0	-0.0	-0.0	-0.0	-0.0	-0.0	-0.0	-0.0	-0.0
0.482	-0.0	-0.0	-0.0	-3.229101181030273	-1.7284919023513794	-731.21484375	-0.0	-0.0	-0.0	-0.0	-0.0	-0.0	-0.0	-0.0	-0.0	-0.0	-0.0	-0.0
0.4825	-0.0	-0.0	-0.0	-3.426564931869507	-2.118661880493164	-729.8028564453125	-0.0	-0.0	-0.0	-0.0	-0.0	-0.0	-0.0	-0.0	-0.0	-0.0	-0.0	-0.0
0.483	-0.0	-0.0	-0.0	-3.354827404022217	-3.3342444896698	-729.530517578125	-0.0	-0.0	-0.0	-0.0	-0.0	-0.0	-0.0	-0.0	-0.0	-0.0	-0.0	-0.0
0.4835	-0.0	-0.0	-0.0	-2.266602039337158	-3.813908576965332	-729.9489135742188	-0.0	-0.0	-0.0	-0.0	-0.0	-0.0	-0.0	-0.0	-0.0	-0.0	-0.0	-0.0
0.484	-0.0	-0.0	-0.0	-1.3371734619140625	-4.91881799697876	-728.8896484375	-0.0	-0.0	-0.0	-0.0	-0.0	-0.0	-0.0	-0.0	-0.0	-0.0	-0.0	-0.0
0.4845	-0.0	-0.0	-0.0	-0.7844159007072449	-5.704345703125	-729.3165283203125	-0.0	-0.0	-0.0	-0.0	-0.0	-0.0	-0.0	-0.0	-0.0	-0.0	-0.0	-0.0
0.485	-0.0	-0.0	-0.0	-0.6067529320716858	-6.685386657714844	-729.173828125	-0.0	-0.0	-0.0	-0.0	-0.0	-0.0	-0.0	-0.0	-0.0	-0.0	-0.0	-0.0
0.4855	-0.0	-0.0	-0.0	-0.4105601906776428	-6.381928443908691	-730.0248413085938	-0.0	-0.0	-0.0	-0.0	-0.0	-0.0	-0.0	-0.0	-0.0	-0.0	-0.0	-0.0
